<?xml version="1.0" standalone="no"?>
<!DOCTYPE svg PUBLIC "-//W3C//DTD SVG 20010904//EN"
 "http://www.w3.org/TR/2001/REC-SVG-20010904/DTD/svg10.dtd">
<svg version="1.0" xmlns="http://www.w3.org/2000/svg"
 width="276.000000pt" height="276.000000pt" viewBox="0 0 276.000000 276.000000"
 preserveAspectRatio="xMidYMid meet">
<metadata>
Created by potrace 1.11, written by Peter Selinger 2001-2013
</metadata>
<g transform="translate(0.000000,276.000000) scale(0.100000,-0.100000)"
fill="#000000" stroke="none">
<path d="M725 1978 c-2 -7 -6 -58 -9 -113 -4 -55 -9 -131 -13 -168 l-6 -68
-59 -46 c-32 -26 -83 -79 -112 -117 -29 -39 -90 -116 -135 -171 -44 -55 -77
-101 -72 -103 4 -1 34 1 65 6 31 5 56 5 56 0 0 -4 -6 -8 -12 -9 -7 0 -31 -9
-53 -20 l-40 -19 55 5 55 5 -60 -29 c-60 -29 -60 -29 -20 -24 22 2 48 6 58 8
9 2 17 -1 17 -6 0 -5 -6 -9 -12 -10 -7 0 -31 -9 -53 -20 l-40 -19 60 5 c60 5
59 2 -10 -25 -29 -11 -21 -15 195 -100 124 -48 254 -100 289 -115 98 -41 238
-73 381 -87 216 -20 469 14 641 87 35 15 165 67 289 115 216 85 224 89 195
100 -69 27 -70 30 -10 25 l60 -5 -40 19 c-22 11 -46 20 -52 20 -7 1 -13 5 -13
10 0 5 8 8 18 6 9 -2 35 -6 57 -8 40 -5 40 -5 -20 24 l-60 29 55 -5 55 -5 -40
19 c-22 11 -46 20 -52 20 -7 1 -13 5 -13 9 0 5 25 5 56 0 31 -5 61 -7 65 -6 5
2 -28 48 -72 103 -45 55 -106 132 -135 171 -29 38 -80 91 -112 117 -67 52 -63
39 -78 285 -4 62 -10 115 -14 117 -4 3 -65 -47 -136 -111 -108 -96 -133 -114
-154 -110 -250 52 -470 52 -720 0 -21 -4 -46 14 -154 111 -71 63 -131 115
-133 115 -2 0 -5 -6 -8 -12z"/>
</g>
</svg>
