<?xml version="1.0" standalone="no"?>
<!DOCTYPE svg PUBLIC "-//W3C//DTD SVG 20010904//EN"
 "http://www.w3.org/TR/2001/REC-SVG-20010904/DTD/svg10.dtd">
<svg version="1.0" xmlns="http://www.w3.org/2000/svg"
 width="356.000000pt" height="356.000000pt" viewBox="0 0 356.000000 356.000000"
 preserveAspectRatio="xMidYMid meet">
<metadata>
Created by potrace 1.11, written by Peter Selinger 2001-2013
</metadata>
<g transform="translate(0.000000,356.000000) scale(0.100000,-0.100000)"
fill="#000000" stroke="none">
<path d="M1575 1785 c-56 -21 -131 -80 -183 -145 -68 -84 -99 -96 -146 -59
-22 17 -26 28 -24 57 2 30 8 38 32 47 24 8 31 6 46 -13 25 -30 30 -28 30 11 0
63 -81 116 -150 97 -85 -23 -129 -91 -130 -201 0 -148 105 -254 288 -290 165
-32 303 25 415 171 l27 35 27 -35 c50 -65 110 -117 169 -146 54 -26 68 -29
164 -28 84 0 117 5 163 23 128 50 199 137 205 251 2 38 -1 84 -8 104 -26 80
-113 135 -182 115 -49 -13 -88 -57 -88 -96 0 -39 5 -41 30 -11 15 19 22 21 46
13 25 -9 29 -16 29 -49 0 -30 -6 -43 -27 -59 -34 -25 -67 -17 -105 25 -157
180 -267 231 -376 175 l-49 -25 -33 19 c-44 26 -120 32 -170 14z"/>
</g>
</svg>
